# xmcd CD database file
#
# Track frame offsets:
#	150
#	23457
#	41852
#	61685
#	82852
#	108957
#	130260
#	156420
#	172915
#	196290
#	212597
#	225077
#	243487
#
# Disc length: 3508 seconds
#
# Revision: 0
# Processed by: cddbd v1.4b41PL1 Copyright (c) Steve Scherf et al.
# Submitted via: Feurio! 1.61 - http://www.feurio.com
#
DISCID=960db20d
DTITLE=The Doug Mac Leod Band - Ain't The Blues Evil
DYEAR=1900
DGENRE=
TTITLE0=Don't Point Your Finger
TTITLE1=Ain't The Blues Evil
TTITLE2=Placquemine
TTITLE3=Lone Wolf
TTITLE4=Love's A Hurtin' Thing
TTITLE5=Just Like A Minstrel
TTITLE6=One Fol Lookin' For Another
TTITLE7=High Priced Woman
TTITLE8=Too Little Too Late
TTITLE9=(I Think You're) Steppin' Out On Me
TTITLE10=Somewhere, Somehow, Someway
TTITLE11=SRV (For Stevie Ray)
TTITLE12=Cold Rain
EXTD=
EXTT0=
EXTT1=
EXTT2=
EXTT3=
EXTT4=
EXTT5=
EXTT6=
EXTT7=
EXTT8=
EXTT9=
EXTT10=
EXTT11=
EXTT12=
PLAYORDER=
